<?xml version="1.0" encoding="utf-8"?>
<!-- Generator: Adobe Illustrator 24.2.3, SVG Export Plug-In . SVG Version: 6.00 Build 0)  -->
<svg version="1.1" id="Layer_1" xmlns="http://www.w3.org/2000/svg" xmlns:xlink="http://www.w3.org/1999/xlink" x="0px" y="0px"
	 viewBox="0 0 20 20" style="enable-background:new 0 0 20 20;" xml:space="preserve">
<style type="text/css">
	.st0{fill:#4B116F;}
</style>
<path class="st0" d="M9,10h2v2h9c0,0-0.1-4.5-0.2-5.9c0-1.3-0.5-2.1-2-2.1h-3.2c-0.5-0.9-1-1.9-1.2-2.3C13.1,1.1,13,1,12.2,1H7.8
	C7,1,6.9,1.1,6.6,1.7C6.4,2.1,5.9,3.1,5.4,4H2.2c-1.5,0-1.9,0.8-2,2.1S0,12,0,12h9V10z M7.6,2.9C7.9,2.5,8,2.4,8.5,2.4h3.1
	c0.5,0,0.6,0.1,0.8,0.5C12.5,3.1,12.7,3.5,13,4H7.1C7.3,3.5,7.6,3.1,7.6,2.9z M11,15H9v-2H0.5c0,0,0.1,1.8,0.2,3.3
	C0.7,17,0.9,18,2.5,18h15c1.6,0,1.8-1,1.8-1.7c0.1-1.6,0.2-3.3,0.2-3.3H11V15z"/>
</svg>
