<?xml version="1.0" encoding="utf-8"?>
<!-- Generator: Adobe Illustrator 24.2.3, SVG Export Plug-In . SVG Version: 6.00 Build 0)  -->
<svg version="1.1" id="Layer_1" xmlns="http://www.w3.org/2000/svg" xmlns:xlink="http://www.w3.org/1999/xlink" x="0px" y="0px"
	 viewBox="0 0 20 20" style="enable-background:new 0 0 20 20;" xml:space="preserve">
<style type="text/css">
	.st0{fill:#4B116F;}
</style>
<path class="st0" d="M9.6,6c2,0,2.6-1.4,1.8-2.8C10.6,1.5,13.3,0,11.9,0c-1.3,0-3.7,1.4-4.2,3.2C7.4,4.5,8,6,9.6,6z M14.8,15
	l-0.4-0.4c-0.5-0.4-1.3-0.4-1.7,0L12.2,15c-0.6,0.5-1.4,0.8-2.2,0.8S8.4,15.5,7.8,15l-0.4-0.4c-0.5-0.4-1.2-0.4-1.7,0L5.2,15
	c-1.2,1-3,1-4.2,0.1V19c0,0.6,0.4,1,1,1h16c0.6,0,1-0.4,1-1v-3.9C17.8,16,16,16,14.8,15z M10,7c-7.6,0-9,3.4-9,5v0.5l1.2,1
	c0.5,0.4,1.2,0.4,1.7,0l0.4-0.4c1.2-1.1,3.1-1.1,4.3,0L9,13.5c0.5,0.4,1.2,0.4,1.7,0l0.4-0.4c1.2-1.1,3.1-1.1,4.3,0l0.4,0.4
	c0.5,0.4,1.3,0.4,1.7,0l1.2-1V12C19,10.4,17.6,7,10,7z"/>
</svg>
