<?xml version="1.0" encoding="utf-8"?>
<!-- Generator: Adobe Illustrator 24.2.3, SVG Export Plug-In . SVG Version: 6.00 Build 0)  -->
<svg version="1.1" id="Layer_1" xmlns="http://www.w3.org/2000/svg" xmlns:xlink="http://www.w3.org/1999/xlink" x="0px" y="0px"
	 viewBox="0 0 20 20" style="enable-background:new 0 0 20 20;" xml:space="preserve">
<style type="text/css">
	.st0{fill:#4B116F;}
</style>
<path class="st0" d="M11,16.8V19H9v-2.1c-1.7-0.1-3.1-0.6-4.2-1.8l1.7-1.7c0.9,0.9,2,1.2,3.3,1.2c1.6,0,2.4-0.6,2.4-1.7
	c0-0.5-0.1-0.9-0.4-1.2c-0.3-0.3-0.6-0.4-1.2-0.5L9,11c-1.2-0.2-2-0.5-2.6-1.1c-0.6-0.7-1-1.5-1-2.7C5.3,4.9,6.7,3.3,9,3V1h2v1.9
	c1.4,0.1,2.5,0.6,3.4,1.6l-1.7,1.7c-0.9-0.8-1.9-0.9-2.8-0.9C8.5,5.2,7.9,6,7.9,7c0,0.3,0.1,0.7,0.4,1C8.5,8.2,9,8.4,9.5,8.5
	l1.6,0.2c1.2,0.2,2,0.5,2.6,1.1c0.7,0.7,1.1,1.7,1.1,2.9C14.8,15,13.2,16.4,11,16.8z"/>
</svg>
