<svg id="Layer_1" data-name="Layer 1" xmlns="http://www.w3.org/2000/svg" viewBox="0 0 1080 1080"><defs><style>.cls-1{fill:#fc0;}</style></defs><path class="cls-1" d="M540.29,0C838.52,0,1080.19,241.72,1080,539.94c-.19,297.89-242.54,539.79-540.57,539.54C241.63,1079.23.31,837,.43,538.46.56,241.16,242.3.05,540.29,0Zm11,299.74c-2.57,8.73-3.95,14.3-5.86,19.68-1.79,5.08-5.92,9.93-6,14.92-.48,44.38-.28,88.76-.28,133.14v37.38l27.2,14.51c-12.65,6.07-28.49,1.37-26.33,18.81,2.4.53,3.62,1,4.85,1q135.68.13,271.35.31c8.83,0,10.43-4.16,10.38-11.74A618.14,618.14,0,0,0,766,263.31c-3.94-8.29-7.57-10.08-16.27-6.23-41.52,18.36-85,30-129.81,37.42-13.51,2.23-26.79,6.46-40.36,7.64C569.47,303,559,300.5,551.31,299.74Zm-323.52,253H27.93c5.13,137.21,56,253.09,149.12,348.61l119.46-80.68C253.76,737.82,231.13,647.7,227.79,552.78Zm-37.43-379c-9.27,6.19-19.19,10.37-25.79,17.58C77.55,286.5,31.71,398.5,28,527.58c-.24,8.63,2.38,12,11.39,12q88.11-.41,176.23,0c8.64,0,11.5-2.8,12-11.6,1.57-28.66,2.47-57.52,7-85.77,2.71-17-3-28.43-13.21-39.71-3.4-3.76-6.51-7.88-10.33-11.15-14-12-18.18-26.65-13.33-44.36,3.67-13.39,5.83-27.24,10.2-40.38,8.78-26.35,15.33-52.55,8.24-80.6-2.45-9.67-2.17-20-3.74-29.95A15.09,15.09,0,0,0,207.8,188C202.54,183.12,196.71,178.9,190.36,173.82Zm48.28,378c2.71,95,25.43,182.91,68.86,267,59.61-27.86,121.24-44,189.48-50.2-11.11-10.33-20.2-17.7-27.89-26.32-5-5.58-9.53-12.56-11.44-19.67-6.27-23.34,5.1-42.4,16.33-61.62,9.23-15.79,17.39-32.26,2.6-49.91-2.48-2.95-2.54-7.95-4.45-14.54l16.67,5.27c12.88-8.56,14.9-31.27,36.67-27.41V551.83c-27.47,0-54-.24-80.6.14-7.73.11-12.68,9.95-8.93,18.15,4.91,10.71,10.9,20.92,16.49,31.31,2.24,4.16,4.65,8.22,7.18,12.67-19.85,5.87-33.09-1.47-38.08-21.8-2.79-11.38-7.6-17.08-19.46-19.48-6.27-1.26-13.4-7.46-16.39-13.34-3.44-6.74-7.19-7.82-13.55-7.77-28.34.2-56.69.08-85,.08ZM889.64,891l-3.43-1.6c4-7.65,7.23-15.87,12.17-22.86,15.08-21.32,30.73-42.24,46.34-63.19,6.62-8.89,9.42-18.24,8.22-29.6-.59-5.58,3.27-11.56,4.8-17.44,4.47-17.2,12-34.43,12-51.66,0-10.47-1-19,5.46-27.79,11.15-15.2,15.34-32,9.15-52.76-12.3,4.87-24.16,9-35.5,14.21-12.83,5.93-18.65,4.86-23.92-8.19-3.09-7.65-5.86-16.45-5.17-24.42,1.84-21.12-9.17-36-21.31-50.79a9.43,9.43,0,0,0-6.4-3c-18-.24-36.1-.13-55-.13-3.25,94.63-25.55,183.15-66.15,264l129.9,86.69c81.85-65.34,164.64-257.21,149.66-349.73h-10.77C1031.28,684.82,981.59,797.48,889.64,891ZM771.25,248.65c7.56,17.53,15.35,34.39,22.16,51.63C822,372.56,836.76,447.6,836.68,525.36c0,11.14,3.27,15.06,14.44,14.29,12.62-.87,25.36,0,38-.33,3.6-.08,8.82-.34,10.46-2.59,7.18-9.84,13.31-20.44,21.43-33.31-5.62,1.59-7.61,2.63-9.58,2.61-5.91-.07-13.88,1.62-17.14-1.48s-3.62-11.78-1.93-16.9A240.29,240.29,0,0,1,908,451.73c4.92-9.38,7.87-17.27,2.29-28.11-3.81-7.39-3.77-17.23-3.82-26-.08-15.49,6.33-23.12,21-27.73,8.42-2.65,16.73-5.64,25.15-8.28,11.4-3.59,18.25.21,17.72,11.93-.6,13.4,5.76,21.39,15.79,28.1,7.72,5.18,14.93,11.34,23.16,15.47,9.93,5,12.49,12.4,12.26,22.65-.41,18.17-.25,36.37.26,54.53.14,4.85,1.46,13.22,3.85,13.85,14.63,3.86,14.12,14.61,14.36,25.86,0,1.73,3.59,4.68,5.57,4.72s5.35-2.32,6.08-4.36c1.08-3,.49-6.66.42-10-1.06-57.17-13.36-112-31.94-166-9.36-27.18-30.22-39.57-53.66-49.08-19.18-7.78-24.36-3.21-25.93,17.42-1,12.64-9.4,25-18.78,23.27-10.62-1.91-23.88-5.63-29.64-13.32-5.46-7.27-2.69-20.71-3.68-33.3,5.55,1.95,7.09,2.91,8.65,3,5.06.15,12.1,2,14.8-.53,5.79-5.5.37-10.38-4.33-14.43-6.93-6-13.7-12.18-21.95-19.54l22.71-28.8c-12.37-11.09-.09-35.49-20-48-4-2.52-4.38-10.93-6.81-17.72l-29.57,22.92c7.17,4,12.92,6.64,18.06,10.19,5.54,3.83,10.23,8.91,15.8,12.69,6.48,4.39,5.17,8.42,1.11,13.55-9.53,12.08-15.32,3.89-20.78-4.11-14.91,12.56-22.45,9.88-26.73-9-.94-4.16-1.13-8.49-1.67-12.83ZM524.72,1046c4.14-24.44,2.77-34.08-5.58-43.34-13.1-14.53-12.66-14.19-.75-29.25,3.27-4.14,3.93-10.93,4.3-16.6.39-6.06-1.93-12.33-1.34-18.34.69-7,4.68-13.84,4.77-20.77.49-38.87.1-77.75.36-116.62,0-8.29-3.6-11.35-11.32-11.57-3.64-.1-9.63,0-10.49-1.9-4.6-10-12.81-8-20.5-7.22a530,530,0,0,0-138.63,33.4C334.68,818,324.08,823,312.33,828,364.11,920.63,433.19,993.56,524.72,1046ZM675.18,675.13c6.05-2.54,11.64-5.93,17.65-7,3.46-.63,10.78,2.21,10.9,3.9.88,11.59,9.88,15.84,17.92,16.87,20.46,2.64,30.39,18.73,43.51,30.72,7.67,7,6.88,15-.87,21.92A107.6,107.6,0,0,1,753,749.7c-16,10.78-23.95,25.87-23.46,45.08.08,3.12,2,7.74,4.42,9,8.1,4.07,16.82,6.91,25.8,10.42C801.43,731.05,823.85,644.7,826,552.6H539.21c0,8.72.64,16.74-.17,24.6-1,9.93,3.94,15,12.59,14.72,5.81-.21,12.84-3,16.91-7.08,8.67-8.69,17.14-10.68,26.76-3.09C612.07,595,628.55,608.61,645,622.28c2.17,1.8,3.08,5,5,7.27,3.44,4,6.48,9.44,10.95,11.39,14.21,6.2,19.11,15.52,13.44,30.16C674,672,674.79,673.41,675.18,675.13ZM891.39,913c-39.07-34.6-80.45-62.51-127.08-84.34-50.07,91.88-118.13,166-206.47,221.63C685.49,1046,795.69,1000,891.39,913ZM507.06,1049.93c-42.58-27.18-81.45-58.67-116.09-95.35S327.49,877.1,303.05,833.4c-36,15.44-99.44,58.92-114.88,78.71C278.14,995.51,384.14,1041.74,507.06,1049.93ZM526.39,328.3c-16,1.69-28.62,12.28-32.29,27.28-2.79,11.4-8.1,20.26-16.56,28.92-6.3,6.44-9.84,17.8-10.27,27.17-.46,10.07,4.65,20.28,6.31,30.6.76,4.71.78,12.67-1.81,14.21-7.72,4.6-16.89,6.74-25.5,9.85-1.89-7.48-4-14.91-5.58-22.46-.84-4.1-.35-8.47-1-12.62-.45-2.81-1.21-6.08-3-8.06-13.92-15.18-28.1-15.74-43.22-1.38-7.54,7.17-14.9,8.18-24.06,3.37C352.17,416.13,339.46,424,339,444q-.64,27.9-.48,55.83c.07,15.23,4.54,19.93,19.56,18.08,6-.73,12.25-5,16.82-9.38,9.1-8.67,19.28-13.4,31.79-13.41,14.14,0,16.51,3.9,10.34,16.88-3.87,8.15-7.48,16.41-12,26.37H527.4c-1.61-6.53-3.19-11.49-4-16.57a48.6,48.6,0,0,1-.44-13c.62-5.24,3.23-10.37,3.26-15.56.27-48.23.16-96.47.16-144.7Zm68.32-41.14c57.25-6.9,109.91-20.3,159.92-43.76-15.51-35.83-67.42-107.69-84-116.07,1.5,10,2.91,19.43,4.38,29.23-15.65,3.83-28.52,1.95-38.06-11-4-5.43-7.85-11-11.53-16.62-7.59-11.61-9-28.75-27.79-30.3-1.62-.14-3.11-2.71-4.53-4.27-6.23-6.88-12.4-13.82-18.63-20.71-9.76-10.8-19.39-21.77-33.26-27-9,32.08,4.32,51,36.11,60.76l-16.12,14,23.1,19.87L564.73,152.9c9.14,14.19,23.1,25.07,23.83,43.74.15,3.79,9,7.87,14.4,10.59,3.58,1.79,8.28,1.25,12.43,2,27.58,4.85,38.37,25.73,26,51.28-1.33,2.73-6.44,5.23-9.73,5.14-12-.32-16.91-6.29-18.87-26.58-1.09-11.32-5.56-12.48-14.65-9.77-14.56,4.34-29.25,8.24-43.8,12.59-2.88.87-5.4,2.92-8.29,4.53,16.07,20.37,40.25,16.32,61.53,22.74ZM694.35,87.82l-18.43,19.51L769,237.91l62.22-35.68c-2.31-6.17-3.81-10.19-5.73-15.34,9.37.46,17.35,12.8,24.38.37-2.37-5.13-4.41-10.21-7-15a118,118,0,0,0-8.76-13.86c-13.88-18.69-13.7-22,3.49-36.06C779.32,80.92,715.8,52.73,645.06,40.41ZM540.71,1045.68c93-53.68,162.72-127.93,213.94-221.82l-24.33-10c-12.17,9.39-21,21.18-31.91,23.48C681.2,841,671.37,851,661,863c-8.39,9.78-19,17.69-28.46,26.52-3.59,3.34-9.14,6.46-10,10.49-2.94,13.74-13.3,16.69-23.85,15.88-13.1-1-17.76,5.52-21.87,15.92-4.24,10.73-4,25-19.72,28.16-1.71.34-3.11,3.82-4.07,6.1C542.47,990.87,535.14,1016.22,540.71,1045.68ZM507.36,91.85l-27.5,8.94c8.65,6.82,2.16,8.78-2.34,12.28-6.59,5.12-17.53,10.86-17.78,16.71-.64,15.38-9.57,12.76-18.56,12.54-21.74-.51-30.76,6.35-36.33,27.3-2,7.57-4.55,15-7.27,23.87,12.32.73,23.64,1.44,35,2.08,12.14.68,20.78,8.26,23.32,20.26,3.68,17.36,13.61,31,25.85,43.36-1.23-9.79-4.61-19-5.43-28.48-.77-8.9-1.53-19.58,2.56-26.68,5.26-9.12,7.71-16.82,5.72-27.13-2.24-11.61,8.22-25.83,24.5-31.66,4.45-1.59,11.52,4.13,16.52,6.15V130.62l-35,6.63c-.41-1.25-.82-2.51-1.24-3.76L518,107.9C514,101.93,510.85,97.11,507.36,91.85ZM304.67,84.46c20.75,25.8,29.93-.9,43.46-9.4,4.74,4,12.51,7.33,12.81,11.27.82,10.86,8.85,10.83,15.12,12,15.1,2.71,28.16-3.26,39.75-12.53,5.23-4.18,10.95-8.36,6.73-16.87-.78-1.57,1.8-6.94,2.81-6.94,18.57.13,17.92-20.62,30.42-27A475.73,475.73,0,0,0,304.67,84.46Zm16.12,454.93c-20.47-7.15-33.65-20.43-42.5-39.45-9.25-19.89-19.75-39.18-29.71-58.73l-5.49,1.6c-1.77,29.45-3.76,58.89-4.92,88.36-.11,2.63,5.12,7.78,8,7.86C271,539.65,295.91,539.39,320.79,539.39ZM486.87,72.16l1.41,3.37,37.22-1.77V48.56Zm52.71,113.21c17-19,16.7-31,0-49Zm374.19,2-4.13,2c0,4.1-1.4,9,.36,12.08,2.13,3.78,6.76,6.32,10.69,8.79.81.52,4.84-2.06,4.73-2.41a46.53,46.53,0,0,0-4.26-10.34C919.05,193.92,916.26,190.74,913.77,187.39Z"/><path class="cls-1" d="M913.77,187.39c2.49,3.35,5.28,6.53,7.39,10.11a46.53,46.53,0,0,1,4.26,10.34c.11.35-3.92,2.93-4.73,2.41-3.93-2.47-8.56-5-10.69-8.79-1.76-3.1-.36-8-.36-12.08Z"/><path class="cls-1" d="M426.75,490.73c15.09-19.48,30.85-19.25,50.91-4.58a56,56,0,0,0,17.68,8.39c11.59,3.24,13.25,4.14,18.95,19-6.56.36-13.28,2.69-18.1.61-10.23-4.42-21.73-6-30.13-15.53-3.9-4.44-13.27-4.37-20.28-5.7C439.52,491.71,433.1,491.42,426.75,490.73Z"/><path class="cls-1" d="M478.08,515c5.34,5.34,9.18,9.17,13,13-2.26,1.7-4.8,5.11-6.74,4.8C477.26,531.68,473,527.74,478.08,515Z"/><path class="cls-1" d="M684.69,206.42c12.43,4,25.06,7.43,37.1,12.36,1.9.77,3.08,9.63,1.17,12.12-4.9,6.38-12,15.31-20.62,8.23s-14.45-17.63-21.5-26.65Q682.76,209.45,684.69,206.42Z"/><path class="cls-1" d="M715.78,112.38c19.27-4.3,32.4,8.06,45.57,18.66,2.6,2.09,1.6,10.36,0,15-.56,1.66-9.19,3.07-11.62,1.24-12.81-9.59-24.82-20.26-37.11-30.55Z"/></svg>