<svg id="Layer_1" data-name="Layer 1" xmlns="http://www.w3.org/2000/svg" viewBox="0 0 1286 846"><defs><style>.cls-1{fill:#fc0;}</style></defs><path class="cls-1" d="M161.53,792.18c2.15-7.51-1.53-17.94-8.36-20-9.29-2.83-10.95-12-16.71-17.63-2.61-2.55-.59-7.31,3.39-9.36,5.16-2.66,7.21-6.1,5.21-12.14-1.6-4.8,1.3-10.11-.9-15.27-.81-1.88,1.84-3,3.78-3.86,3.77-1.69,5.33-4.83,2.3-8.1-4.14-4.47-4.11-9.32-2.51-14.45,1.37-4.39.13-7.43-3.81-9.45-3-1.54-3.45-3.86-1.86-6.46,1.91-3.13,1.32-5.75-1.14-8-2.94-2.71-2.63-5.19-.37-8.22,3.71-5,1.38-10.32.41-15.53-.72-3.91-5.26-9.49,4-8.91.38,0,1.29-1.2,1.19-1.69-.33-1.62-1.15-3-3.14-3a80.61,80.61,0,0,1-8.38-.62c-3.79-.59-6.51-3.28-4.21-6.62,3.94-5.73,1.82-11,.67-16.6a31.44,31.44,0,0,1-1-5.88,2.44,2.44,0,0,1,2.84-2.41c1.45.07,2.16.88,1.74,2.41s-1.54,3.36.24,4.29c1.52.8,3.14-.7,4.14-1.79,1.47-1.61,2.41-3.68,1.4-6a5.93,5.93,0,0,0-5.56-3.9,9.45,9.45,0,0,1-6.77-3.18c-2.9-2.86-3.66-5.13.09-7.64,2.12-1.42,2.43-3.21,1.88-5.71-1.17-5.28-.06-10.58,1.79-15.44,1.65-4.32.33-6.32-3.66-6.45a20.78,20.78,0,0,1-9.07-2.54c-6.86-3.51-6.88-3.47-1.5-9.14,2.24-2.35,1.23-9-1.63-10.5-2.52-1.35-3.82.15-4.51,2.24-1.67,5-5.14,5.23-9,3.25s-5.66-7.42-2.87-10.75c3.13-3.75,2.33-5.7-1.43-7.9-3.44-2-4.47-4.93-2-8.49,3.07-4.43,2.49-8.54-.1-13.2-3.44-6.19-2.84-6.89,4.06-8.57,1.12-.27,2.54-.11,2.91-1.58.41-1.65-.73-2.71-1.94-3.37-4.22-2.3-3.43-5.14-1.26-8.4,1.32-2,2.22-4.26,3.52-6.27,2.86-4.41,2.23-7.83-2.51-10.39-1-.55-2.73-1.48-2.69-2.16.38-7.41-6.38-11.1-8.66-17.07-1.32-3.45-2.73-5.95.91-9.95,2.65-2.9,1.56-9.21,2.13-14-6.05-.89-9.64-4.3-11.13-10.28-.17-.66-2.51,0-3.66,1.06-.91.82-1.66,2.75-3.35,1.36a2.92,2.92,0,0,1-.36-3.88c3-4.42,1.54-6.34-3.28-7.16-3.24-.55-4.87-2.62-4-6.07,1.2-5.07-1.82-9.8-1.22-14.84.08-.68-.41-2-.85-2.08-5.94-1.38-6.53-8-11.06-11-4.15-2.7-3.62-12.49.23-16.06,1.43-1.33,1.36-2.75,1.52-4.65.56-7-1.93-12.27-6.54-17.52-3-3.47-4.34-8.45-8.92-10.88-2.41-1.27-3-3.6-1-5.39,2.9-2.52,2.7-5.59,2.49-8.75-.23-3.33.26-6.21,2.91-8.64,3.76-3.44,3.36-8.15,2-12.19-1.43-4.36-5.52-5.38-9.92-4.53-6.16,1.17-7.35-4.54-10.38-7.63-.79-.81.29-1.87,1.1-2.42,2.09-1.44,2.31-4,1.22-5.33-3.7-4.45-2.21-10.12-4.1-15-1.05-2.68-2.55-3-5.7-2.77,6.42-6,.46-10.22-2.34-12.74-4.55-4.08-7.17-10.42-14-12.2-3.07-.79-1.9-5.28-1.93-7.53C.27,203.64-1,197.86,4.05,194c2.2-1.7,3.47-3.92,4.78-6.46,1.22-2.36.57-7.49,6-6.88.7.08,2.63-2.92,2.46-4.29-.68-5.35,4.13-9.53,2.63-15.09-.8-3,1-5.46,3.43-7.72,3.12-2.86,6.65-6.15,2.06-11-1.86-2-.34-4.06,1.43-5.67,2.51-2.28,3.7-4.22.39-7.33-2.53-2.38-3.61-5.2,1.34-7.84,4.11-2.2,11.57-3.28,8.79-11.51-.27-.8,1.55-2.2,2.17-3.43,1-1.91,2.84-4.39.95-6-4.57-3.93-3.66-9.08-4.36-14C34.6,76.1,34.45,75.93,22.17,74.85c-4.67-.42-6.89-1.11-3.05-5.65,1.85-2.18-.35-3-1.37-4.37s-3.93-2-3.38-4.41c.61-2.77-.49-7.35,5.41-5.45,3.16,1,4.69-1.12,4.86-4.33.14-2.59.67-5.16.9-7.75.58-6.39,3.43-13.18-5-17.42-3-1.5-3.32-6.28-7-8.18-2.19-1.13-.48-3.58.11-5.42C14.89,8.12,16.88,4.38,13,.34,24.09.34,34.22.2,44.35.36c57,.89,114,1.68,171.06,2.82,52.42,1.05,104.83,2.18,157.26,2.37,18.82.07,37.63.33,56.44.37,74.48.17,149,.46,223.44.36,48.43-.07,96.87-.58,145.3-1.19q70.23-.87,140.44-2.38,58.49-1.17,117-2.81c3.75-.1,4.79,1.37,3.81,4.55-1.74,5.59-.51,10.32,2.77,15.14a13.61,13.61,0,0,1,1.22,13.17c-1.79,4.52-.52,7.88,4.77,8.8,13.14,2.3,18.55,12.47,23.62,23,.81,1.68-.12,2.64-1,3.72-6,7.74-9.77,17-15,25-7.89,12.19-4,23.48-2,35.2,1.54,9.12,5.32,17.81,5.12,27.29a8.2,8.2,0,0,0,3.45,7.25c7.23,5.28,9.56,13.25,10.78,21.47.8,5.35,2.2,10.55,3,15.86.68,4.49,5,4.68,7.48,7.08a44,44,0,0,0,19.55,11.74c13.49,3.75,27.15,6.64,40.72,10,4.09,1,5.8,4.5,7.36,8.08,2.85,6.53,4.46,13.62,9.8,19,2.29,2.31,2.25,5.87.43,8.9-3.16,5.28-1.76,9.74,3.57,11.71,9.79,3.6,15.26,13,24.48,17.16,7.67,3.45,11.72,10.68,17.13,16.47,2.24,2.39.92,5.4.58,8.06a25.34,25.34,0,0,0,14.78,26.09c8,3.51,16.17,6.88,24.3,10.22,2.31.95,4.39,2.05,5.14,4.6.84,2.9,2.2,4.87,5.61,5.32s3.43,3.61,3.35,6.15c-.24,8.29.45,16.19,4.82,23.67,2.13,3.64-.11,7.87-1.88,11.31a9.58,9.58,0,0,0-.66,8.51c2,5.27,1.65,10.46-.35,15.75s-3.66,11-3.1,16.94c.33,3.53-1.89,5.16-4.84,6.69-7.24,3.78-14.48,7.69-19.07,14.91-.74,1.18-2.1,2.47-2,3.6,1.08,12-6.85,22.92-4.11,35.08.57,2.56-.67,4-3,5a37.07,37.07,0,0,0-17.38,14.14c-3.34,5-7.63,5.69-13,4.51-8.16-1.79-13.41,1.25-18.53,8-3.87,5.12-8.32,9.92-15.78,10.83-7.73.95-15.36,2.75-23.22,1.87A23.18,23.18,0,0,0,1141.6,556c-4.47,3.13-9.3,4.66-14.64,3.1-5.13-1.49-9.36.87-13.76,2.68-1.32.54-2.74,1.17-2.84,2.78-.45,7.19-5.44,13.4-4.42,20.91.84,6.23-2.88,11.21-5.35,16.26-4.24,8.68,1.53,14.27,5.22,20.46,1.24,2.09,3.77,3.41,4.83,5.93s3.51,3.18,6,2.4,4.78-.17,6,1.49c4.06,5.39,8.67,10.83,9.87,17.53,2.55,14.33.93,28.71-1.14,43a7.12,7.12,0,0,1-3.43,5.37c-6.83,4-10.86,10.4-14.51,17.13a12.9,12.9,0,0,1-2.76,3.84c-4.28,3.58-5.78,7.92-4.49,13.36a7.43,7.43,0,0,1,0,4.1c-2.94,7.58-3.8,15.37-3.82,23.47,0,5.27-10.6,14.51-16.5,14.54-16.08.1-28.7,7.13-39.46,18.44-3.93,4.12-4,6.78.41,10.28,5,4,7.09,8.67,5.64,15.18s-2.82,12.77.3,19.35c1.75,3.69-1.43,6.13-4.63,7-6,1.6-12.32,2.72-18-.52s-10.66-8.56-10.06-15.29c.38-4.31-1.24-3.88-3.5-3.92-3.9-.07-6.36-1.91-7.83-5.38-2.24-5.29-8.56-8-8.66-15,0-2.29-5.34-2.73-8.31-3.66s-4.51-2.36-5-5.7c-.86-5.7-8.75-11.51-14.57-11.11-53.08,3.62-106.22,6.12-159.38,8.18-52,2-103.92,4.29-155.92,5.11q-48.32.76-96.63,1.61c-29.4.51-58.81,1.57-88.21,1.46-40-.15-80-1-120-1.88-31-.68-62-1.78-93-2.81C226.75,794.54,194.38,793.34,161.53,792.18Z"/></svg>